<?xml version="1.0" standalone="no"?>
<!DOCTYPE svg PUBLIC "-//W3C//DTD SVG 20010904//EN"
 "http://www.w3.org/TR/2001/REC-SVG-20010904/DTD/svg10.dtd">
<svg version="1.0" xmlns="http://www.w3.org/2000/svg"
 width="512.000000pt" height="512.000000pt" viewBox="0 0 512.000000 512.000000"
 preserveAspectRatio="xMidYMid meet">
<metadata>
Created by potrace 1.11, written by Peter Selinger 2001-2013
</metadata>
<g transform="translate(0.000000,512.000000) scale(0.100000,-0.100000)"
fill="#000000" stroke="none">
<path d="M2727 4083 c-2 -1 -30 -5 -62 -8 -109 -10 -272 -48 -366 -85 -182
-72 -222 -105 -186 -154 10 -14 35 -21 98 -27 112 -11 143 -17 209 -41 165
-59 229 -110 570 -450 162 -162 306 -302 320 -311 14 -9 34 -14 45 -12 11 2
25 4 31 4 6 1 30 17 53 38 l43 36 53 -55 54 -55 -40 -42 c-32 -35 -39 -50 -39
-83 0 -38 7 -46 139 -178 137 -138 167 -158 215 -146 13 3 117 99 231 213 197
197 208 210 213 251 l5 43 -144 145 c-140 140 -146 144 -187 144 -35 0 -49 -6
-83 -38 l-41 -39 -54 55 -55 54 23 26 c13 14 28 32 35 39 20 23 25 70 10 100
-9 15 -113 125 -234 243 -270 267 -305 288 -536 321 -70 10 -313 19 -320 12z"/>
<path d="M2665 3291 c-16 -10 -438 -428 -936 -927 -852 -854 -908 -912 -923
-961 -56 -171 32 -334 202 -377 58 -15 147 -4 205 25 28 15 341 321 938 918
493 493 904 909 914 924 21 33 22 85 1 124 -17 33 -251 266 -283 282 -33 17
-84 13 -118 -8z"/>
</g>
</svg>
